<svg xmlns="http://www.w3.org/2000/svg" viewBox="0 0 128 128" role="img" aria-labelledby="title">
  <title id="title">SiapAI</title>
  <rect width="128" height="128" rx="28" fill="#087f64"/>
  <path fill="#fff" d="M82.7 39.4c-4.8-3.3-10.3-5-16.5-5-7.9 0-13.1 2.6-13.1 7.4 0 4.1 3.3 6.1 13.8 8.7 17.7 4.4 24.8 11.1 24.8 23.3 0 15.1-12 24.4-30.8 24.4-11.2 0-21.3-3.2-28.5-9.2l8.3-11.7c5.8 4.4 12.7 6.7 20.7 6.7 8.5 0 13.6-2.9 13.6-7.8 0-4.4-3.4-6.6-14.5-9.4-16.9-4.2-24-10.9-24-22.5 0-14.7 11.9-24 29.9-24 9.7 0 18.5 2.7 25 7.7z"/>
</svg>
